#!OML:ASF C:\Vicon Data\Big\jianyuan-12\jianyuan\Session 1\Capture.male.ASF
:FULLY-SPECIFIED
:DEGREES
181
root -11.480758 17.472017 -11.174755 -4.289141 -35.657359 15.942688
lowerback -8.496662 -0.237578 -10.175991 
upperback 2.530860 1.218170 -3.516576 
thorax 7.390371 0.273247 2.157063 
lowerneck 3.345585 -11.457237 -7.660996 
upperneck -6.817035 -14.725851 18.015559 
head -0.560594 -7.631434 6.640599 
rclavicle 0.000000 0.000000 
rhumerus -36.115891 -28.613117 -80.121227 
rradius 35.867906 
rwrist 30.316126 
rhand -20.007178 -5.645440 
rfingers 0.000000 
rthumb 6.332868 -35.530732 
lclavicle 0.000000 0.000000 
lhumerus -39.052109 40.231637 64.219443 
lradius 26.104046 
lwrist -50.902078 
lhand -8.055913 5.580166 
lfingers 0.000000 
lthumb 17.855017 34.780479 
rfemur -22.428784 -19.236774 9.780606 
rtibia 75.243494 
rfoot -12.506347 -14.057670 
rtoes 5.079616 
lfemur -14.682591 -1.836623 -27.971079 
ltibia 17.307497 
lfoot -13.866421 -0.713183 
ltoes -28.735391 
182
root -11.510660 17.478095 -11.125219 -4.217592 -35.878905 15.941817
lowerback -8.429607 -0.336822 -10.210581 
upperback 2.502979 1.076135 -3.502256 
thorax 7.336836 0.204900 2.170609 
lowerneck 3.374019 -11.444859 -7.608225 
upperneck -6.943609 -14.692206 18.002619 
head -0.611422 -7.621192 6.637890 
rclavicle 0.000000 0.000000 
rhumerus -36.378711 -28.605833 -80.004492 
rradius 35.891205 
rwrist 30.459986 
rhand -19.776903 -5.510437 
rfingers 0.000000 
rthumb 6.555156 -35.389011 
lclavicle 0.000000 0.000000 
lhumerus -39.210104 41.129622 63.539195 
lradius 25.541636 
lwrist -55.788126 
lhand -9.841693 5.247263 
lfingers 0.000000 
lthumb 16.135870 34.592807 
rfemur -23.523865 -19.844221 10.121486 
rtibia 75.829629 
rfoot -13.220399 -14.321806 
rtoes 4.556335 
lfemur -14.491139 -1.825820 -27.942400 
ltibia 17.240247 
lfoot -14.150434 -0.542026 
ltoes -28.644742 
183
root -11.537861 17.481360 -11.072617 -4.231630 -36.029601 15.937167
lowerback -8.288925 -0.452192 -10.217653 
upperback 2.513849 0.903474 -3.492985 
thorax 7.286581 0.121907 2.158838 
lowerneck 3.344885 -11.402664 -7.663829 
upperneck -6.986620 -14.631360 18.056214 
head -0.617889 -7.591483 6.664540 
rclavicle 0.000000 0.000000 
rhumerus -36.548142 -28.792379 -79.809180 
rradius 35.695368 
rwrist 30.874027 
rhand -19.682725 -5.305531 
rfingers 0.000000 
rthumb 6.646117 -35.181233 
lclavicle 0.000000 0.000000 
lhumerus -38.933197 41.613860 63.420710 
lradius 25.385986 
lwrist -57.546555 
lhand -10.528532 5.143964 
lfingers 0.000000 
lthumb 15.474639 34.544661 
rfemur -24.471317 -20.482534 10.408846 
rtibia 76.339765 
rfoot -13.966724 -14.188724 
rtoes 3.996674 
lfemur -14.202737 -1.970215 -27.926296 
ltibia 17.185565 
lfoot -14.459572 -0.298544 
ltoes -28.616583 
184
root -11.572928 17.484883 -11.013110 -4.302410 -36.327305 15.881546
lowerback -8.197347 -0.531816 -10.170423 
upperback 2.551175 0.776848 -3.446008 
thorax 7.287508 0.058928 2.163827 
lowerneck 3.317729 -11.349330 -7.611698 
upperneck -7.036590 -14.555916 17.926165 
head -0.652657 -7.553555 6.622222 
rclavicle 0.000000 0.000000 
rhumerus -36.751393 -29.040982 -79.533863 
rradius 35.497567 
rwrist 31.409140 
rhand -19.651638 -5.313396 
rfingers 0.000000 
rthumb 6.676146 -35.188148 
lclavicle 0.000000 0.000000 
lhumerus -38.444361 41.733898 63.657107 
lradius 25.358885 
lwrist -57.524508 
lhand -10.723228 5.219596 
lfingers 0.000000 
lthumb 15.287129 34.634616 
rfemur -25.260044 -20.919080 10.714682 
rtibia 76.742700 
rfoot -14.581631 -14.095270 
rtoes 4.007857 
lfemur -13.807085 -2.155538 -27.848899 
ltibia 17.189708 
lfoot -14.947949 0.117080 
ltoes -28.820629 
185
root -11.606559 17.489956 -10.954707 -4.348915 -36.649996 15.950073
lowerback -8.202882 -0.614856 -10.285574 
upperback 2.566160 0.673734 -3.373851 
thorax 7.318050 -0.001081 2.288815 
lowerneck 3.341552 -11.286789 -7.624397 
upperneck -7.153484 -14.465791 17.815162 
head -0.710326 -7.511846 6.602000 
rclavicle 0.000000 0.000000 
rhumerus -36.961896 -28.885488 -79.325837 
rradius 35.469888 
rwrist 31.492220 
rhand -19.607969 -5.310252 
rfingers 0.000000 
rthumb 6.718249 -35.183698 
lclavicle 0.000000 0.000000 
lhumerus -37.978480 42.015973 63.892135 
lradius 25.305254 
lwrist -57.690713 
lhand -10.898000 5.289294 
lfingers 0.000000 
lthumb 15.118729 34.717123 
rfemur -26.223283 -21.319727 10.981640 
rtibia 77.081036 
rfoot -14.794614 -13.871230 
rtoes 3.508955 
lfemur -13.543461 -2.364904 -27.872469 
ltibia 17.232306 
lfoot -15.447904 0.556004 
ltoes -28.751984 
186
root -11.638737 17.489737 -10.899767 -4.266911 -36.958939 15.884116
lowerback -8.214433 -0.695757 -10.300789 
upperback 2.565978 0.558502 -3.279961 
thorax 7.336624 -0.062921 2.380232 
lowerneck 3.207797 -11.231568 -7.697199 
upperneck -7.071954 -14.405903 17.754981 
head -0.671657 -7.471951 6.585095 
rclavicle 0.000000 0.000000 
rhumerus -37.138736 -28.884299 -79.102108 
rradius 35.391976 
rwrist 31.673782 
rhand -19.501522 -5.040751 
rfingers 0.000000 
rthumb 6.821036 -34.910856 
lclavicle 0.000000 0.000000 
lhumerus -37.452911 42.289704 64.160496 
lradius 25.225546 
lwrist -57.774796 
lhand -11.099822 5.362079 
lfingers 0.000000 
lthumb 14.924327 34.804410 
rfemur -27.233016 -21.626472 11.407949 
rtibia 77.367664 
rfoot -15.002661 -13.607618 
rtoes 3.912889 
lfemur -13.364566 -2.521809 -27.780099 
ltibia 17.310458 
lfoot -15.927262 0.910593 
ltoes -28.720226 
187
root -11.671364 17.488645 -10.844709 -4.299099 -37.277635 15.844877
lowerback -8.113156 -0.746976 -10.300700 
upperback 2.570834 0.470079 -3.224434 
thorax 7.292956 -0.106833 2.426543 
lowerneck 3.179166 -11.200011 -7.695417 
upperneck -7.041550 -14.370422 17.687251 
head -0.668507 -7.451630 6.563233 
rclavicle 0.000000 0.000000 
rhumerus -37.352698 -28.847159 -78.922457 
rradius 35.339719 
rwrist 31.783228 
rhand -19.430135 -4.912635 
rfingers 0.000000 
rthumb 6.889943 -34.780512 
lclavicle 0.000000 0.000000 
lhumerus -36.867459 42.247179 64.516412 
lradius 25.217844 
lwrist -57.493131 
lhand -11.265035 5.506362 
lfingers 0.000000 
lthumb 14.765179 34.960415 
rfemur -28.109512 -21.939610 11.771133 
rtibia 77.592299 
rfoot -15.188091 -13.398881 
rtoes 3.437702 
lfemur -13.107390 -2.771474 -27.709447 
ltibia 17.452730 
lfoot -16.473273 1.358837 
ltoes -28.689933 
188
root -11.705675 17.490384 -10.787433 -4.322407 -37.626184 15.797504
lowerback -8.053475 -0.808322 -10.298786 
upperback 2.578491 0.370752 -3.138703 
thorax 7.277572 -0.158578 2.502313 
lowerneck 3.232255 -11.128372 -7.847683 
upperneck -7.104389 -14.280458 17.689678 
head -0.695152 -7.409187 6.596794 
rclavicle 0.000000 0.000000 
rhumerus -37.576783 -28.807148 -78.673556 
rradius 35.298390 
rwrist 31.921295 
rhand -19.443780 -4.915089 
rfingers 0.000000 
rthumb 6.876780 -34.783423 
lclavicle 0.000000 0.000000 
lhumerus -36.488453 42.693793 64.627364 
lradius 25.237733 
lwrist -57.591943 
lhand -11.366010 5.488218 
lfingers 0.000000 
lthumb 14.667917 34.949369 
rfemur -28.973064 -22.181726 12.169145 
rtibia 77.731540 
rfoot -15.258104 -12.979421 
rtoes 2.205362 
lfemur -12.868161 -2.964517 -27.642450 
ltibia 17.620962 
lfoot -17.042541 1.806820 
ltoes -28.789424 
189
root -11.740950 17.487639 -10.731232 -4.380702 -37.945926 15.815065
lowerback -7.969634 -0.865084 -10.343509 
upperback 2.581990 0.283863 -3.093860 
thorax 7.243408 -0.203472 2.562449 
lowerneck 3.196449 -11.053999 -7.866447 
upperneck -7.066851 -14.186570 17.649876 
head -0.692320 -7.359259 6.588113 
rclavicle 0.000000 0.000000 
rhumerus -37.827819 -28.809554 -78.462086 
rradius 35.247173 
rwrist 32.049708 
rhand -19.475580 -5.009578 
rfingers 0.000000 
rthumb 6.846053 -34.878851 
lclavicle 0.000000 0.000000 
lhumerus -35.907958 42.765165 64.955532 
lradius 25.229907 
lwrist -57.461504 
lhand -11.374444 5.517508 
lfingers 0.000000 
lthumb 14.659761 34.979271 
rfemur -29.840478 -22.424224 12.502810 
rtibia 77.809352 
rfoot -15.130356 -12.389980 
rtoes 2.061296 
lfemur -12.641893 -3.168503 -27.627230 
ltibia 17.806507 
lfoot -17.607953 2.193406 
ltoes -28.628855 
190
root -11.774626 17.488001 -10.678315 -4.242606 -38.282347 15.718167
lowerback -7.984956 -0.928731 -10.308011 
upperback 2.551426 0.184477 -3.007222 
thorax 7.230123 -0.252919 2.621009 
lowerneck 3.258980 -11.005764 -7.786036 
upperneck -7.172236 -14.114897 17.484622 
head -0.762083 -7.328431 6.539081 
rclavicle 0.000000 0.000000 
rhumerus -38.023496 -28.893783 -78.167469 
rradius 35.103013 
rwrist 32.283571 
rhand -19.510605 -5.126092 
rfingers 0.000000 
rthumb 6.812267 -34.996508 
lclavicle 0.000000 0.000000 
lhumerus -35.370466 42.966578 65.234795 
lradius 25.204938 
lwrist -57.659202 
lhand -11.625431 5.708805 
lfingers 0.000000 
lthumb 14.417939 35.187950 
rfemur -30.874398 -22.508213 13.022794 
rtibia 77.810961 
rfoot -15.075450 -11.852535 
rtoes 2.225943 
lfemur -12.568474 -3.307270 -27.504453 
ltibia 17.998752 
lfoot -18.113422 2.536367 
ltoes -28.716523 
